<?xml version="1.0" encoding="utf-8"?>
<!-- Generator: Adobe Illustrator 26.0.3, SVG Export Plug-In . SVG Version: 6.00 Build 0)  -->
<svg version="1.1" xmlns="http://www.w3.org/2000/svg" xmlns:xlink="http://www.w3.org/1999/xlink" x="0px" y="0px"
	 viewBox="0 0 1280 250" style="enable-background:new 0 0 1280 250;" xml:space="preserve">
<style type="text/css">
	.st0{fill:#DD6D8B;stroke:#000078;stroke-width:8;stroke-miterlimit:10;}
	.st1{enable-background:new    ;}
	.st2{fill:#009F9F;}
	.st3{fill:#00DFDF;}
	.st4{fill:#008080;}
	.st5{clip-path:url(#SVGID_00000102522716368648134770000003015425806693912195_);enable-background:new    ;}
	.st6{fill:#009E9E;}
	.st7{fill:#009999;}
	.st8{fill:#009494;}
	.st9{fill:#008F8F;}
	.st10{fill:#008A8A;}
	.st11{fill:#008585;}
	.st12{clip-path:url(#SVGID_00000124881751840170096740000002589947090240658829_);enable-background:new    ;}
	.st13{clip-path:url(#SVGID_00000116948691916551522280000002129833212115479169_);enable-background:new    ;}
	.st14{fill:#00A3A3;}
	.st15{clip-path:url(#SVGID_00000170967423468254774620000003516082059677874333_);enable-background:new    ;}
	.st16{clip-path:url(#SVGID_00000134935220269331006790000006901696928348445070_);enable-background:new    ;}
	.st17{clip-path:url(#SVGID_00000056410877688635050780000003837192399728486033_);enable-background:new    ;}
	.st18{clip-path:url(#SVGID_00000034784333492088831010000005658245378948952716_);enable-background:new    ;}
	.st19{clip-path:url(#SVGID_00000079444904798161236230000000268855792558270390_);enable-background:new    ;}
	.st20{clip-path:url(#SVGID_00000043458240764148113370000001088553535351360394_);enable-background:new    ;}
	.st21{clip-path:url(#SVGID_00000102516256855186772980000001122439216555505289_);enable-background:new    ;}
	.st22{clip-path:url(#SVGID_00000168826320170957361880000015298898339408774275_);enable-background:new    ;}
	.st23{clip-path:url(#SVGID_00000173842895717672879080000002627628953732291518_);enable-background:new    ;}
	.st24{clip-path:url(#SVGID_00000170997334078415723630000009167455300124718510_);enable-background:new    ;}
	.st25{clip-path:url(#SVGID_00000104684436841604060360000006490385512693677483_);enable-background:new    ;}
	.st26{clip-path:url(#SVGID_00000181802057076202758640000016421192151046498199_);enable-background:new    ;}
	.st27{clip-path:url(#SVGID_00000183942600990772646790000013916463466261322881_);enable-background:new    ;}
	.st28{clip-path:url(#SVGID_00000165931336451905470220000007496455415947148170_);enable-background:new    ;}
	.st29{fill:#00A2A2;}
	.st30{fill:#009A9A;}
	.st31{fill:#008181;}
	.st32{fill:#009D9D;}
</style>
<g id="Layer_1">
	<ellipse class="st0" cx="646.5" cy="125.5" rx="175" ry="100.5"/>
	<g>
		<g>
			<g class="st1">
				<g>
					<polygon class="st2" points="525.9,137.3 516.3,130.5 527.6,130.3 537.2,137.1 					"/>
				</g>
				<g>
					<polygon class="st3" points="530.1,118.1 525.9,137.3 537.2,137.1 536.6,139.6 522.6,139.9 527.4,118.1 					"/>
				</g>
				<g>
					<polygon class="st4" points="522.6,139.9 513,133.1 517.8,111.3 527.4,118.1 					"/>
				</g>
				<g>
					<polygon class="st2" points="527.4,118.1 517.8,111.3 520.6,111.3 530.1,118.1 					"/>
				</g>
			</g>
			<g class="st1">
				<g class="st1">
					<defs>
						<path id="SVGID_1_" class="st1" d="M504.3,137.7l-9.6-6.8c2.5,0,4.6-1.9,5.5-6l9.6,6.8C508.9,135.8,506.8,137.7,504.3,137.7z"
							/>
					</defs>
					<clipPath id="SVGID_00000053532434428159424590000009012692287303101841_">
						<use xlink:href="#SVGID_1_"  style="overflow:visible;"/>
					</clipPath>
					<g style="clip-path:url(#SVGID_00000053532434428159424590000009012692287303101841_);enable-background:new    ;">
						<path class="st6" d="M504.3,137.7l-9.6-6.8c0,0,0,0,0.1,0L504.3,137.7C504.4,137.7,504.4,137.7,504.3,137.7"/>
						<path class="st7" d="M504.4,137.7l-9.6-6.8c0.3,0,0.6,0,0.8-0.1l9.6,6.8C505,137.7,504.7,137.7,504.4,137.7"/>
						<path class="st8" d="M505.2,137.6l-9.6-6.8c0.2,0,0.5-0.1,0.7-0.2l9.6,6.8C505.7,137.5,505.5,137.5,505.2,137.6"/>
						<path class="st9" d="M505.9,137.4l-9.6-6.8c0.2-0.1,0.4-0.2,0.6-0.3l9.6,6.8C506.4,137.2,506.1,137.3,505.9,137.4"/>
						<path class="st10" d="M506.6,137.1l-9.6-6.8c0.3-0.1,0.5-0.3,0.7-0.5l9.6,6.8C507.1,136.8,506.8,136.9,506.6,137.1"/>
						<path class="st11" d="M507.3,136.6l-9.6-6.8c1.1-1,2-2.6,2.5-4.8l9.6,6.8C509.3,134,508.4,135.6,507.3,136.6"/>
					</g>
				</g>
				<g class="st1">
					<defs>
						<path id="SVGID_00000145051616820460482480000013934161176393035674_" class="st1" d="M499.3,120.2l9.6,6.8
							c1.1,0.8,1.5,2.2,0.9,4.8l-9.6-6.8C500.8,122.4,500.4,120.9,499.3,120.2z"/>
					</defs>
					<clipPath id="SVGID_00000142881480887351596240000011234463734799632567_">
						<use xlink:href="#SVGID_00000145051616820460482480000013934161176393035674_"  style="overflow:visible;"/>
					</clipPath>
					<g style="clip-path:url(#SVGID_00000142881480887351596240000011234463734799632567_);enable-background:new    ;">
						<path class="st11" d="M509.8,131.7l-9.6-6.8c0.6-2.5,0.1-4-0.9-4.8l9.6,6.8C509.9,127.7,510.4,129.2,509.8,131.7"/>
					</g>
				</g>
				<g class="st1">
					<defs>
						<path id="SVGID_00000059311784384622257970000003233154341938983306_" class="st1" d="M501.4,118.5l9.6,6.8
							c-0.3-0.2-0.6-0.4-1-0.6l-9.6-6.8C500.8,118.1,501.2,118.3,501.4,118.5z"/>
					</defs>
					<clipPath id="SVGID_00000048491650777627211610000014294073557050732219_">
						<use xlink:href="#SVGID_00000059311784384622257970000003233154341938983306_"  style="overflow:visible;"/>
					</clipPath>
					<g style="clip-path:url(#SVGID_00000048491650777627211610000014294073557050732219_);enable-background:new    ;">
						<path class="st14" d="M510,124.7l-9.6-6.8c0.4,0.2,0.7,0.4,1,0.6l9.6,6.8C510.7,125.1,510.4,124.9,510,124.7"/>
					</g>
				</g>
				<g>
					<polygon class="st2" points="500.6,137.8 491,131 494.8,130.9 504.3,137.7 					"/>
				</g>
				<g class="st1">
					<defs>
						<path id="SVGID_00000088851884766172573420000004483183524890866309_" class="st1" d="M506.1,123.8l-9.6-6.8
							c2.8,0,4.5-1.6,5.1-4.5l9.6,6.8C510.6,122.2,509,123.8,506.1,123.8z"/>
					</defs>
					<clipPath id="SVGID_00000125587312817112660210000012165440452022241408_">
						<use xlink:href="#SVGID_00000088851884766172573420000004483183524890866309_"  style="overflow:visible;"/>
					</clipPath>
					<g style="clip-path:url(#SVGID_00000125587312817112660210000012165440452022241408_);enable-background:new    ;">
						<path class="st6" d="M506.1,123.8l-9.6-6.8c0,0,0.1,0,0.1,0l9.6,6.8C506.2,123.8,506.2,123.8,506.1,123.8"/>
						<path class="st7" d="M506.2,123.8l-9.6-6.8c0.4,0,0.8-0.1,1.2-0.1l9.6,6.8C507,123.8,506.6,123.8,506.2,123.8"/>
						<path class="st8" d="M507.4,123.7l-9.6-6.8c0.3-0.1,0.5-0.1,0.8-0.2l9.6,6.8C507.9,123.5,507.7,123.6,507.4,123.7"/>
						<path class="st9" d="M508.2,123.5l-9.6-6.8c0.2-0.1,0.4-0.2,0.6-0.3l9.6,6.8C508.6,123.3,508.4,123.4,508.2,123.5"/>
						<path class="st10" d="M508.8,123.2l-9.6-6.8c0.2-0.1,0.4-0.3,0.6-0.4l9.6,6.8C509.2,122.9,509,123,508.8,123.2"/>
						<path class="st11" d="M509.4,122.7l-9.6-6.8c0.9-0.8,1.5-1.9,1.8-3.4l9.6,6.8C510.9,120.8,510.3,122,509.4,122.7"/>
					</g>
				</g>
				<g>
					<polygon class="st2" points="495.6,137.8 486,131.1 488.3,131 497.8,137.8 					"/>
				</g>
				<g>
					<polygon class="st4" points="495.1,140.4 485.5,133.6 486,131.1 495.6,137.8 					"/>
				</g>
				<g class="st1">
					<defs>
						<path id="SVGID_00000071532860642624458660000011336045669710365063_" class="st1" d="M500.9,108.8l9.6,6.8
							c0.9,0.6,1.2,1.8,0.8,3.8l-9.6-6.8C502.1,110.6,501.8,109.4,500.9,108.8z"/>
					</defs>
					<clipPath id="SVGID_00000022549584365546772490000006486329580414471563_">
						<use xlink:href="#SVGID_00000071532860642624458660000011336045669710365063_"  style="overflow:visible;"/>
					</clipPath>
					<g style="clip-path:url(#SVGID_00000022549584365546772490000006486329580414471563_);enable-background:new    ;">
						<path class="st11" d="M511.2,119.3l-9.6-6.8c0.4-1.9,0.1-3.1-0.8-3.8l9.6,6.8C511.4,116.2,511.7,117.4,511.2,119.3"/>
					</g>
				</g>
				<g>
					<polygon class="st2" points="503.7,123.9 494.1,117.1 496.6,117 506.1,123.8 					"/>
				</g>
				<g class="st1">
					<defs>
						<path id="SVGID_00000053540934669332892070000016388792767917797539_" class="st1" d="M502.8,106.4l9.6,6.8
							c-0.8-0.6-1.8-0.9-2.8-0.8l-9.6-6.8C501.1,105.5,502,105.8,502.8,106.4z"/>
					</defs>
					<clipPath id="SVGID_00000043426509734906658400000006336987911290706844_">
						<use xlink:href="#SVGID_00000053540934669332892070000016388792767917797539_"  style="overflow:visible;"/>
					</clipPath>
					<g style="clip-path:url(#SVGID_00000043426509734906658400000006336987911290706844_);enable-background:new    ;">
						<path class="st6" d="M509.6,112.4l-9.6-6.8c0.4,0,0.8,0,1.2,0.1l9.6,6.8C510.4,112.4,510,112.3,509.6,112.4"/>
						<path class="st14" d="M510.7,112.5l-9.6-6.8c0.6,0.1,1.2,0.4,1.7,0.7l9.6,6.8C511.9,112.8,511.3,112.6,510.7,112.5"/>
					</g>
				</g>
				<g>
					<polygon class="st4" points="497.8,137.8 488.3,131 493.3,108.2 502.8,115 					"/>
				</g>
				<g>
					<path class="st3" d="M514.1,119.3c-0.5,2.3-1.9,4.3-4.1,5.4c2.8,1.3,3.4,3.7,2.7,7c-1.3,5.8-5,8.4-8.8,8.5l-8.9,0.2l0.6-2.5
						l2.2,0l5-22.8l-2.2,0l0.6-2.5l8.4-0.1C512.6,112.3,515.1,114.8,514.1,119.3z M509.8,131.7c0.9-4.1-0.8-5.5-3.7-5.4l-3,0.1
						l-2.5,11.4l3.7-0.1C506.8,137.7,508.9,135.8,509.8,131.7 M511.2,119.3c0.7-3.4-0.7-4.5-4-4.4l-1.6,0l-1.9,8.9l2.5,0
						C509,123.8,510.6,122.2,511.2,119.3"/>
				</g>
				<g>
					<polygon class="st2" points="501.2,112.5 491.6,105.7 500,105.6 509.6,112.4 					"/>
				</g>
				<g>
					<polygon class="st4" points="500.6,115 491,108.2 491.6,105.7 501.2,112.5 					"/>
				</g>
			</g>
			<g class="st1">
				<g class="st1">
					<defs>
						<path id="SVGID_00000170957465480683453230000010350925303292368051_" class="st1" d="M656.7,135l-9.6-6.8
							c3.6-0.1,5.7-2.2,7-8.4l9.6,6.8C662.4,132.9,660.4,135,656.7,135z"/>
					</defs>
					<clipPath id="SVGID_00000077289302142140540200000016303950358330869387_">
						<use xlink:href="#SVGID_00000170957465480683453230000010350925303292368051_"  style="overflow:visible;"/>
					</clipPath>
					<g style="clip-path:url(#SVGID_00000077289302142140540200000016303950358330869387_);enable-background:new    ;">
						<path class="st6" d="M656.7,135l-9.6-6.8c0,0,0.1,0,0.1,0l9.6,6.8C656.8,135,656.8,135,656.7,135"/>
						<path class="st7" d="M656.9,135l-9.6-6.8c0.5,0,0.9-0.1,1.3-0.1l9.6,6.8C657.8,135,657.3,135,656.9,135"/>
						<path class="st8" d="M658.2,134.9l-9.6-6.8c0.3-0.1,0.6-0.1,0.9-0.2l9.6,6.8C658.7,134.7,658.5,134.8,658.2,134.9"/>
						<path class="st9" d="M659,134.6l-9.6-6.8c0.3-0.1,0.5-0.2,0.7-0.3l9.6,6.8C659.5,134.4,659.3,134.5,659,134.6"/>
						<path class="st10" d="M659.7,134.3l-9.6-6.8c0.3-0.2,0.5-0.3,0.8-0.5l9.6,6.8C660.3,134,660,134.1,659.7,134.3"/>
						<path class="st11" d="M660.5,133.8l-9.6-6.8c1.5-1.2,2.5-3.5,3.3-7.2l9.6,6.8C663,130.3,661.9,132.5,660.5,133.8"/>
					</g>
				</g>
				<g>
					<polygon class="st2" points="653.8,135.1 644.2,128.3 647.2,128.2 656.7,135 					"/>
				</g>
				<g class="st1">
					<defs>
						<path id="SVGID_00000181088984858570305770000000848825032780570780_" class="st1" d="M653.5,112.1l9.6,6.8
							c1.4,1,1.7,3.2,0.7,7.7l-9.6-6.8C655.2,115.3,654.9,113.1,653.5,112.1z"/>
					</defs>
					<clipPath id="SVGID_00000026847663253959350720000000674293383632474292_">
						<use xlink:href="#SVGID_00000181088984858570305770000000848825032780570780_"  style="overflow:visible;"/>
					</clipPath>
					<g style="clip-path:url(#SVGID_00000026847663253959350720000000674293383632474292_);enable-background:new    ;">
						<path class="st11" d="M663.8,126.6l-9.6-6.8c1-4.5,0.6-6.7-0.7-7.7l9.6,6.8C664.4,119.9,664.8,122.1,663.8,126.6"/>
					</g>
				</g>
				<g>
					<polygon class="st2" points="648.8,135.2 639.3,128.4 641.5,128.3 651.1,135.1 					"/>
				</g>
				<g>
					<polygon class="st4" points="648.3,137.7 638.7,130.9 639.3,128.4 648.8,135.2 					"/>
				</g>
				<g class="st1">
					<defs>
						<path id="SVGID_00000032618108559727766580000003921435705511376771_" class="st1" d="M655.9,110.1l9.6,6.8
							c-1.2-0.8-2.9-1.2-5.2-1.1l-9.6-6.8C652.9,109,654.7,109.3,655.9,110.1z"/>
					</defs>
					<clipPath id="SVGID_00000151513038071401803790000013418858844199272595_">
						<use xlink:href="#SVGID_00000032618108559727766580000003921435705511376771_"  style="overflow:visible;"/>
					</clipPath>
					<g style="clip-path:url(#SVGID_00000151513038071401803790000013418858844199272595_);enable-background:new    ;">
						<path class="st6" d="M660.2,115.8l-9.6-6.8c1.2,0,2.2,0.1,3.1,0.2l9.6,6.8C662.4,115.8,661.4,115.8,660.2,115.8"/>
						<path class="st14" d="M663.3,116l-9.6-6.8c0.8,0.2,1.6,0.5,2.1,0.9l9.6,6.8C664.8,116.5,664.1,116.2,663.3,116"/>
					</g>
				</g>
				<g>
					<polygon class="st4" points="651.1,135.1 641.5,128.3 645.1,111.6 654.7,118.4 					"/>
				</g>
				<g>
					<polygon class="st4" points="652.5,118.4 642.9,111.6 643.5,109.1 653.1,115.9 					"/>
				</g>
				<g>
					<path class="st3" d="M660.2,115.8c6.1-0.1,8.3,2.4,6.5,10.5c-1.5,6.8-3.6,11.2-11.3,11.3l-7.2,0.1l0.6-2.5l2.2,0l3.7-16.8
						l-2.2,0l0.6-2.5L660.2,115.8z M663.8,126.6c1.5-6.7,0-8.4-3.5-8.3l-2.8,0l-3.7,16.8l2.9-0.1C660.4,135,662.4,132.9,663.8,126.6
						"/>
				</g>
				<g>
					<polygon class="st2" points="653.1,115.9 643.5,109.1 650.7,109 660.2,115.8 					"/>
				</g>
			</g>
			<g class="st1">
				<g>
					<polygon class="st2" points="627.6,135.5 618,128.8 628.7,128.6 638.2,135.4 					"/>
				</g>
				<g>
					<polygon class="st2" points="629.8,125.3 620.3,118.5 629.1,118.4 638.6,125.2 					"/>
				</g>
				<g>
					<polygon class="st3" points="642.5,116.1 641.9,118.6 631.3,118.8 629.8,125.3 638.6,125.2 638.1,127.7 629.3,127.8 
						627.6,135.5 638.2,135.4 637.7,137.9 624.3,138.1 629.1,116.3 					"/>
				</g>
				<g>
					<polygon class="st4" points="624.3,138.1 614.7,131.3 619.5,109.5 629.1,116.3 					"/>
				</g>
				<g>
					<polygon class="st2" points="629.1,116.3 619.5,109.5 632.9,109.3 642.5,116.1 					"/>
				</g>
			</g>
			<g class="st1">
				<g>
					<polygon class="st4" points="610.5,138.9 600.9,132.1 597.6,122.3 607.2,129.1 					"/>
				</g>
				<g class="st1">
					<defs>
						<path id="SVGID_00000031893365968609215330000007485806833916839568_" class="st1" d="M607.4,126.6l-9.6-6.8
							c2.7,0,4.8-1.6,5.4-4.1l9.6,6.8C612.2,125,610.1,126.6,607.4,126.6z"/>
					</defs>
					<clipPath id="SVGID_00000049914629892823631830000003636021895429697965_">
						<use xlink:href="#SVGID_00000031893365968609215330000007485806833916839568_"  style="overflow:visible;"/>
					</clipPath>
					<g style="clip-path:url(#SVGID_00000049914629892823631830000003636021895429697965_);enable-background:new    ;">
						<path class="st6" d="M607.4,126.6l-9.6-6.8c0,0,0.1,0,0.1,0L607.4,126.6C607.4,126.6,607.4,126.6,607.4,126.6"/>
						<path class="st7" d="M607.5,126.6l-9.6-6.8c0.4,0,0.8-0.1,1.2-0.1l9.6,6.8C608.3,126.6,607.9,126.6,607.5,126.6"/>
						<path class="st8" d="M608.6,126.5l-9.6-6.8c0.3-0.1,0.6-0.2,0.9-0.3l9.6,6.8C609.2,126.3,608.9,126.4,608.6,126.5"/>
						<path class="st9" d="M609.5,126.2l-9.6-6.8c0.3-0.1,0.5-0.2,0.8-0.4l9.6,6.8C610.1,126,609.8,126.1,609.5,126.2"/>
						<path class="st10" d="M610.3,125.8l-9.6-6.8c0.3-0.2,0.5-0.3,0.8-0.5l9.6,6.8C610.8,125.5,610.6,125.7,610.3,125.8"/>
						<path class="st11" d="M611.1,125.3l-9.6-6.8c0.8-0.7,1.4-1.6,1.7-2.8l9.6,6.8C612.5,123.7,611.9,124.6,611.1,125.3"/>
					</g>
				</g>
				<g class="st1">
					<defs>
						<path id="SVGID_00000049928978458715194840000015782413359786246029_" class="st1" d="M602.4,112.9l9.6,6.8
							c0.8,0.6,1.1,1.6,0.8,2.8l-9.6-6.8C603.4,114.5,603.2,113.5,602.4,112.9z"/>
					</defs>
					<clipPath id="SVGID_00000039098766441682536480000016462526139411512215_">
						<use xlink:href="#SVGID_00000049928978458715194840000015782413359786246029_"  style="overflow:visible;"/>
					</clipPath>
					<g style="clip-path:url(#SVGID_00000039098766441682536480000016462526139411512215_);enable-background:new    ;">
						<path class="st11" d="M612.7,122.5l-9.6-6.8c0.3-1.2,0-2.3-0.8-2.8l9.6,6.8C612.8,120.3,613,121.3,612.7,122.5"/>
					</g>
				</g>
				<g>
					<polygon class="st2" points="603.7,126.7 594.2,119.9 597.8,119.8 607.4,126.6 					"/>
				</g>
				<g class="st1">
					<defs>
						<path id="SVGID_00000127018803315220653480000010797720534738139530_" class="st1" d="M604.7,110.8l9.6,6.8
							c-0.9-0.7-2.3-1-3.8-0.9l-9.6-6.8C602.4,109.8,603.8,110.1,604.7,110.8z"/>
					</defs>
					<clipPath id="SVGID_00000121260932110501818060000014132913971117841333_">
						<use xlink:href="#SVGID_00000127018803315220653480000010797720534738139530_"  style="overflow:visible;"/>
					</clipPath>
					<g style="clip-path:url(#SVGID_00000121260932110501818060000014132913971117841333_);enable-background:new    ;">
						<path class="st6" d="M610.5,116.7l-9.6-6.8c0.7,0,1.4,0,2,0.2l9.6,6.8C611.8,116.7,611.2,116.6,610.5,116.7"/>
						<path class="st14" d="M612.5,116.8l-9.6-6.8c0.7,0.2,1.3,0.4,1.8,0.8l9.6,6.8C613.8,117.2,613.2,117,612.5,116.8"/>
					</g>
				</g>
				<g>
					<path class="st3" d="M615.6,122.5c-0.6,2.7-2.9,5.3-5.7,6.2l3.3,8.7l-2.7,1.5l-3.3-9.8l-4,0.1l-2,9.3l-2.8,0l4.8-21.8l7.3-0.1
						C614.1,116.6,616.5,118.3,615.6,122.5z M612.7,122.5c0.4-2-0.4-3.4-2.9-3.4l-4.5,0.1l-1.6,7.4l3.6-0.1
						C610.1,126.6,612.2,125,612.7,122.5"/>
				</g>
				<g>
					<polygon class="st2" points="603.2,116.8 593.6,110 600.9,109.9 610.5,116.7 					"/>
				</g>
				<g>
					<polygon class="st4" points="598.4,138.5 588.8,131.8 593.6,110 603.2,116.8 					"/>
				</g>
			</g>
			<g class="st1">
				<g>
					<polygon class="st4" points="585,139.3 575.4,132.5 572.1,122.8 581.6,129.6 					"/>
				</g>
				<g class="st1">
					<defs>
						<path id="SVGID_00000114054651150051361280000014289156680221686949_" class="st1" d="M581.8,127.1l-9.6-6.8
							c2.7,0,4.8-1.6,5.4-4.1l9.6,6.8C586.6,125.4,584.5,127,581.8,127.1z"/>
					</defs>
					<clipPath id="SVGID_00000150093609086880432300000002951741797933748669_">
						<use xlink:href="#SVGID_00000114054651150051361280000014289156680221686949_"  style="overflow:visible;"/>
					</clipPath>
					<g style="clip-path:url(#SVGID_00000150093609086880432300000002951741797933748669_);enable-background:new    ;">
						<path class="st6" d="M581.8,127.1l-9.6-6.8c0,0,0.1,0,0.1,0L581.8,127.1C581.9,127.1,581.8,127.1,581.8,127.1"/>
						<path class="st7" d="M581.9,127.1l-9.6-6.8c0.4,0,0.8-0.1,1.2-0.1l9.6,6.8C582.7,127,582.3,127,581.9,127.1"/>
						<path class="st8" d="M583.1,126.9l-9.6-6.8c0.3-0.1,0.6-0.2,0.9-0.3l9.6,6.8C583.7,126.8,583.4,126.9,583.1,126.9"/>
						<path class="st9" d="M584,126.7l-9.6-6.8c0.3-0.1,0.5-0.2,0.8-0.4l9.6,6.8C584.5,126.4,584.2,126.6,584,126.7"/>
						<path class="st10" d="M584.8,126.3l-9.6-6.8c0.3-0.2,0.5-0.3,0.8-0.5l9.6,6.8C585.3,126,585,126.1,584.8,126.3"/>
						<path class="st11" d="M585.5,125.8L576,119c0.8-0.7,1.4-1.6,1.7-2.8l9.6,6.8C586.9,124.1,586.3,125.1,585.5,125.8"/>
					</g>
				</g>
				<g class="st1">
					<defs>
						<path id="SVGID_00000152253326916904079090000001387127739598056841_" class="st1" d="M576.8,113.3l9.6,6.8
							c0.8,0.6,1.1,1.6,0.8,2.8l-9.6-6.8C577.9,115,577.6,113.9,576.8,113.3z"/>
					</defs>
					<clipPath id="SVGID_00000115503087076960824560000002464154245899721650_">
						<use xlink:href="#SVGID_00000152253326916904079090000001387127739598056841_"  style="overflow:visible;"/>
					</clipPath>
					<g style="clip-path:url(#SVGID_00000115503087076960824560000002464154245899721650_);enable-background:new    ;">
						<path class="st11" d="M587.2,123l-9.6-6.8c0.3-1.2,0-2.3-0.8-2.8l9.6,6.8C587.2,120.7,587.4,121.7,587.2,123"/>
					</g>
				</g>
				<g>
					<polygon class="st2" points="578.2,127.1 568.6,120.3 572.2,120.3 581.8,127.1 					"/>
				</g>
				<g class="st1">
					<defs>
						<path id="SVGID_00000107556758044918338650000017573856202254372499_" class="st1" d="M579.2,111.3l9.6,6.8
							c-0.9-0.7-2.3-1-3.8-0.9l-9.6-6.8C576.9,110.3,578.2,110.6,579.2,111.3z"/>
					</defs>
					<clipPath id="SVGID_00000002363852328931377910000004255232541240157836_">
						<use xlink:href="#SVGID_00000107556758044918338650000017573856202254372499_"  style="overflow:visible;"/>
					</clipPath>
					<g style="clip-path:url(#SVGID_00000002363852328931377910000004255232541240157836_);enable-background:new    ;">
						<path class="st6" d="M584.9,117.1l-9.6-6.8c0.7,0,1.4,0,2,0.2l9.6,6.8C586.3,117.1,585.6,117.1,584.9,117.1"/>
						<path class="st14" d="M586.9,117.3l-9.6-6.8c0.7,0.2,1.3,0.4,1.8,0.8l9.6,6.8C588.2,117.7,587.6,117.4,586.9,117.3"/>
					</g>
				</g>
				<g>
					<path class="st3" d="M590.1,122.9c-0.6,2.7-2.9,5.3-5.7,6.2l3.3,8.7l-2.7,1.5l-3.3-9.8l-4,0.1l-2,9.3l-2.8,0l4.8-21.8l7.3-0.1
						C588.5,117,591,118.7,590.1,122.9z M587.2,123c0.4-2-0.4-3.4-2.9-3.4l-4.5,0.1l-1.6,7.4l3.6-0.1
						C584.5,127,586.6,125.4,587.2,123"/>
				</g>
				<g>
					<polygon class="st2" points="577.6,117.2 568,110.4 575.3,110.3 584.9,117.1 					"/>
				</g>
				<g>
					<polygon class="st4" points="572.8,139 563.3,132.2 568,110.4 577.6,117.2 					"/>
				</g>
			</g>
			<g class="st1">
				<g class="st1">
					<defs>
						<path id="SVGID_00000147923145990775387760000002395308439005316005_" class="st1" d="M551.6,136.6l-9.6-6.8
							c0.5,0.3,1.2,0.5,2.1,0.5c3.5-0.1,4.5-1.6,5.2-4.8l9.6,6.8c-0.7,3.1-1.8,4.7-5.2,4.8C552.8,137.1,552.1,136.9,551.6,136.6z"/>
					</defs>
					<clipPath id="SVGID_00000021823226214461552810000012093965337258038918_">
						<use xlink:href="#SVGID_00000147923145990775387760000002395308439005316005_"  style="overflow:visible;"/>
					</clipPath>
					<g style="clip-path:url(#SVGID_00000021823226214461552810000012093965337258038918_);enable-background:new    ;">
						<path class="st14" d="M551.6,136.6l-9.6-6.8c0.2,0.2,0.6,0.3,0.9,0.4l9.6,6.8C552.2,136.9,551.9,136.8,551.6,136.6"/>
						<path class="st6" d="M552.6,137l-9.6-6.8c0.3,0.1,0.8,0.1,1.2,0.1c0,0,0.1,0,0.1,0l9.6,6.8c0,0-0.1,0-0.1,0
							C553.3,137.1,552.9,137.1,552.6,137"/>
						<path class="st7" d="M553.9,137.1l-9.6-6.8c0.5,0,1-0.1,1.4-0.2l9.6,6.8C554.9,137,554.4,137.1,553.9,137.1"/>
						<path class="st8" d="M555.3,136.9l-9.6-6.8c0.3-0.1,0.5-0.1,0.8-0.2l9.6,6.8C555.9,136.8,555.6,136.9,555.3,136.9"/>
						<path class="st9" d="M556.1,136.7l-9.6-6.8c0.2-0.1,0.4-0.2,0.6-0.3l9.6,6.8C556.5,136.5,556.3,136.6,556.1,136.7"/>
						<path class="st10" d="M556.7,136.4l-9.6-6.8c0.2-0.1,0.4-0.2,0.5-0.4l9.6,6.8C557.1,136.2,556.9,136.3,556.7,136.4"/>
						<path class="st11" d="M557.2,136l-9.6-6.8c0.9-0.8,1.4-2,1.8-3.7l9.6,6.8C558.6,134,558.2,135.3,557.2,136"/>
					</g>
				</g>
				<g>
					<polygon class="st4" points="559,132.3 549.4,125.5 552.7,110.7 562.3,117.5 					"/>
				</g>
				<g>
					<polygon class="st2" points="562.3,117.5 552.7,110.7 555.5,110.7 565,117.5 					"/>
				</g>
				<g class="st1">
					<defs>
						<path id="SVGID_00000074437194783277543470000017334550392024395912_" class="st1" d="M549.6,138.7l-9.6-6.8
							c-1.6-1.1-2-3-1.5-5.1l9.6,6.8C547.6,135.7,548,137.6,549.6,138.7z"/>
					</defs>
					<clipPath id="SVGID_00000098929800321685091270000015133303286897915033_">
						<use xlink:href="#SVGID_00000074437194783277543470000017334550392024395912_"  style="overflow:visible;"/>
					</clipPath>
					<g style="clip-path:url(#SVGID_00000098929800321685091270000015133303286897915033_);enable-background:new    ;">
						<path class="st11" d="M549.6,138.7l-9.6-6.8c-1.6-1.1-2-3-1.5-5.1l9.6,6.8C547.6,135.7,548,137.6,549.6,138.7"/>
					</g>
				</g>
				<g>
					<path class="st3" d="M565,117.5l-3.6,16.2c-0.6,2.9-3.3,6-8.1,6.1c-4.7,0.1-6.1-2.8-5.4-6l3.5-16l2.8,0l-3.3,14.8
						c-0.7,3.2-0.1,4.7,2.7,4.6c3.5-0.1,4.5-1.6,5.2-4.8l3.3-14.8L565,117.5z"/>
				</g>
				<g>
					<polygon class="st4" points="548,133.7 538.5,126.9 542,110.9 551.6,117.7 					"/>
				</g>
				<g>
					<polygon class="st2" points="551.6,117.7 542,110.9 544.8,110.8 554.3,117.6 					"/>
				</g>
			</g>
			<g class="st1">
				<g>
					<polygon class="st2" points="734.3,133.7 724.8,126.9 727.8,126.8 737.4,133.6 					"/>
				</g>
				<g>
					<polygon class="st4" points="728,136.3 718.4,129.5 719,127 728.6,133.8 					"/>
				</g>
				<g>
					<polygon class="st2" points="728.6,133.8 719,127 722,126.9 731.6,133.7 					"/>
				</g>
				<g>
					<polygon class="st4" points="731.6,133.7 722,126.9 725.7,110.2 735.2,117 					"/>
				</g>
				<g>
					<polygon class="st3" points="741.6,114.4 741,116.9 738,116.9 734.3,133.7 737.4,133.6 736.8,136.1 728,136.3 728.6,133.8 
						731.6,133.7 735.2,117 732.2,117 732.8,114.5 					"/>
				</g>
				<g>
					<polygon class="st4" points="732.2,117 722.7,110.2 723.2,107.7 732.8,114.5 					"/>
				</g>
				<g>
					<polygon class="st2" points="732.8,114.5 723.2,107.7 732,107.6 741.6,114.4 					"/>
				</g>
			</g>
			<g class="st1">
				<g>
					<polygon class="st2" points="708.4,129.1 698.9,122.3 699,122.3 708.5,129.1 					"/>
				</g>
				<g>
					<polygon class="st29" points="718.8,108.2 709.2,101.4 711.9,101.9 721.5,108.7 					"/>
				</g>
				<g>
					<polygon class="st4" points="708.5,129.1 699,122.3 709.2,101.4 718.8,108.2 					"/>
				</g>
				<g>
					<polygon class="st3" points="718.8,108.2 721.5,108.7 707.1,137.2 706.4,137.2 704.5,109 707.4,108.4 708.4,129.1 708.5,129.1 
											"/>
				</g>
				<g>
					<polygon class="st4" points="706.4,137.2 696.8,130.4 694.9,102.2 704.5,109 					"/>
				</g>
				<g>
					<polygon class="st30" points="704.5,109 694.9,102.2 697.8,101.6 707.4,108.4 					"/>
				</g>
			</g>
			<g class="st1">
				<g>
					<polygon class="st2" points="789,128.2 779.5,121.4 779.5,121.4 789.1,128.2 					"/>
				</g>
				<g>
					<polygon class="st29" points="794.2,112.9 784.6,106.1 787.3,106.4 796.9,113.2 					"/>
				</g>
				<g>
					<polygon class="st4" points="789.1,128.2 779.5,121.4 784.6,106.1 794.2,112.9 					"/>
				</g>
				<g>
					<polygon class="st4" points="787.9,135.8 778.3,129 776.8,115.7 786.3,122.5 					"/>
				</g>
				<g>
					<polygon class="st2" points="781,128.4 771.5,121.6 771.5,121.6 781.1,128.4 					"/>
				</g>
				<g>
					<polygon class="st31" points="781.1,128.4 771.5,121.6 777.5,110.8 787,117.6 					"/>
				</g>
				<g>
					<polygon class="st2" points="787,117.6 777.5,110.8 778.2,110.8 787.8,117.6 					"/>
				</g>
				<g>
					<polygon class="st3" points="794.2,112.9 796.9,113.2 788.8,135.8 787.9,135.8 786.3,122.5 778.9,135.9 777.9,136 779.8,113.5 
						782.7,113.1 781,128.4 781.1,128.4 787,117.6 787.8,117.6 789,128.2 789.1,128.2 					"/>
				</g>
				<g>
					<polygon class="st32" points="779.8,113.5 770.2,106.7 773.2,106.3 782.7,113.1 					"/>
				</g>
				<g>
					<polygon class="st4" points="777.9,136 768.4,129.2 770.2,106.7 779.8,113.5 					"/>
				</g>
			</g>
			<g class="st1">
				<g>
					<polygon class="st2" points="755.4,133.3 745.8,126.5 756.5,126.3 766,133.1 					"/>
				</g>
				<g>
					<polygon class="st2" points="757.6,123.1 748.1,116.3 756.8,116.1 766.4,122.9 					"/>
				</g>
				<g>
					<polygon class="st3" points="770.3,113.9 769.7,116.4 759.1,116.6 757.6,123.1 766.4,122.9 765.9,125.4 757.1,125.6 
						755.4,133.3 766,133.1 765.5,135.6 752.1,135.9 756.9,114.1 					"/>
				</g>
				<g>
					<polygon class="st4" points="752.1,135.9 742.5,129.1 747.3,107.3 756.9,114.1 					"/>
				</g>
				<g>
					<polygon class="st2" points="756.9,114.1 747.3,107.3 760.7,107.1 770.3,113.9 					"/>
				</g>
			</g>
		</g>
	</g>
</g>
<g id="Layer_2">
</g>
</svg>
